<svg width="1200" height="780" viewBox="0 0 1200 780" fill="none" xmlns="http://www.w3.org/2000/svg">
  <rect width="1200" height="780" rx="28" fill="#0C1424"/>
  <rect x="72" y="84" width="220" height="106" rx="16" fill="#15213B" stroke="#2F4F7A"/>
  <text x="100" y="145" fill="#91A9D4" font-size="30" font-family="monospace">API Gateway</text>
  <rect x="422" y="84" width="220" height="106" rx="16" fill="#15213B" stroke="#2F4F7A"/>
  <text x="450" y="145" fill="#91A9D4" font-size="30" font-family="monospace">Auth Service</text>
  <rect x="772" y="84" width="220" height="106" rx="16" fill="#15213B" stroke="#2F4F7A"/>
  <text x="820" y="145" fill="#91A9D4" font-size="30" font-family="monospace">Billing</text>
  <rect x="212" y="332" width="220" height="106" rx="16" fill="#15213B" stroke="#2F4F7A"/>
  <text x="246" y="393" fill="#91A9D4" font-size="30" font-family="monospace">Queue</text>
  <rect x="562" y="332" width="220" height="106" rx="16" fill="#15213B" stroke="#2F4F7A"/>
  <text x="610" y="393" fill="#91A9D4" font-size="30" font-family="monospace">Workers</text>
  <rect x="392" y="574" width="420" height="126" rx="20" fill="#122344" stroke="#3A68A6"/>
  <text x="468" y="650" fill="#A8C2F0" font-size="38" font-family="monospace">PostgreSQL Cluster</text>
  <path d="M292 137H422" stroke="#4D6BFF" stroke-width="10" stroke-linecap="round"/>
  <path d="M642 137H772" stroke="#4D6BFF" stroke-width="10" stroke-linecap="round"/>
  <path d="M292 190V332" stroke="#1AC8B0" stroke-width="10" stroke-linecap="round"/>
  <path d="M642 190V332" stroke="#1AC8B0" stroke-width="10" stroke-linecap="round"/>
  <path d="M322 438L492 574" stroke="#4D6BFF" stroke-width="10" stroke-linecap="round"/>
  <path d="M672 438L602 574" stroke="#4D6BFF" stroke-width="10" stroke-linecap="round"/>
</svg>
